{
  "accessors": [
    {
      "bufferView": 2,
      "componentType": 5126,
      "count": 65532,
      "max": [
        3.109105110168457,
        -31.002281188964844,
        5.8406205177307129
      ],
      "min": [
        -4.0403361320495605,
        -36.546138763427734,
        -2.9651913642883301
      ],
      "type": "VEC3"
    },
    {
      "bufferView": 2,
      "byteOffset": 786384,
      "componentType": 5126,
      "count": 65532,
      "max": [
        0.99999940395355225,
        0.99999874830245972,
        0.99999982118606567
      ],
      "min": [
        -0.99999934434890747,
        -0.99999886751174927,
        -0.9999992847442627
      ],
      "type": "VEC3"
    },
    {
      "bufferView": 1,
      "componentType": 5126,
      "count": 65532,
      "max": [
        0.99831998348236084,
        0.62731897830963135
      ],
      "min": [
        0.00018499999714549631,
        0.00026900001103058457
      ],
      "type": "VEC2"
    },
    {
      "bufferView": 0,
      "componentType": 5125,
      "count": 313002,
      "max": [
        65531
      ],
      "min": [
        0
      ],
      "type": "SCALAR"
    },
    {
      "bufferView": 2,
      "byteOffset": 1572768,
      "componentType": 5126,
      "count": 65532,
      "max": [
        2.7109513282775879,
        -31.002536773681641,
        2.6535890102386475
      ],
      "min": [
        -3.9935314655303955,
        -46.368576049804688,
        -2.9648654460906982
      ],
      "type": "VEC3"
    },
    {
      "bufferView": 2,
      "byteOffset": 2359152,
      "componentType": 5126,
      "count": 65532,
      "max": [
        0.99997860193252563,
        0.99995088577270508,
        0.99998998641967773
      ],
      "min": [
        -0.99999755620956421,
        -0.99999535083770752,
        -0.99999934434890747
      ],
      "type": "VEC3"
    },
    {
      "bufferView": 1,
      "byteOffset": 524256,
      "componentType": 5126,
      "count": 65532,
      "max": [
        0.99977099895477295,
        0.62707501649856567
      ],
      "min": [
        0.00012199999764561653,
        0.11610300093889236
      ],
      "type": "VEC2"
    },
    {
      "bufferView": 0,
      "byteOffset": 1252008,
      "componentType": 5125,
      "count": 277491,
      "max": [
        65531
      ],
      "min": [
        0
      ],
      "type": "SCALAR"
    },
    {
      "bufferView": 2,
      "byteOffset": 3145536,
      "componentType": 5126,
      "count": 65534,
      "max": [
        2.0193154811859131,
        -39.086429595947266,
        2.1834249496459961
      ],
      "min": [
        -3.8397302627563477,
        -46.367458343505859,
        -2.1916642189025879
      ],
      "type": "VEC3"
    },
    {
      "bufferView": 2,
      "byteOffset": 3931944,
      "componentType": 5126,
      "count": 65534,
      "max": [
        0.99995160102844238,
        0.99970030784606934,
        0.99986326694488525
      ],
      "min": [
        -0.99960756301879883,
        -0.99975758790969849,
        -0.99999570846557617
      ],
      "type": "VEC3"
    },
    {
      "bufferView": 1,
      "byteOffset": 1048512,
      "componentType": 5126,
      "count": 65534,
      "max": [
        0.9997590184211731,
        0.62731897830963135
      ],
      "min": [
        0.00012199999764561653,
        0.13750000298023224
      ],
      "type": "VEC2"
    },
    {
      "bufferView": 0,
      "byteOffset": 2361972,
      "componentType": 5125,
      "count": 261729,
      "max": [
        65533
      ],
      "min": [
        0
      ],
      "type": "SCALAR"
    },
    {
      "bufferView": 2,
      "byteOffset": 4718352,
      "componentType": 5126,
      "count": 65532,
      "max": [
        3.0590062141418457,
        -31.509685516357422,
        4.8832736015319824
      ],
      "min": [
        -3.9814295768737793,
        -45.400344848632812,
        -2.8083746433258057
      ],
      "type": "VEC3"
    },
    {
      "bufferView": 2,
      "byteOffset": 5504736,
      "componentType": 5126,
      "count": 65532,
      "max": [
        0.99999326467514038,
        0.9999697208404541,
        0.99999833106994629
      ],
      "min": [
        -0.99999624490737915,
        -0.99912548065185547,
        -0.99995309114456177
      ],
      "type": "VEC3"
    },
    {
      "bufferView": 1,
      "byteOffset": 1572784,
      "componentType": 5126,
      "count": 65532,
      "max": [
        0.99977397918701172,
        0.62731897830963135
      ],
      "min": [
        0.00012199999764561653,
        0.061464998871088028
      ],
      "type": "VEC2"
    },
    {
      "bufferView": 0,
      "byteOffset": 3408888,
      "componentType": 5125,
      "count": 294072,
      "max": [
        65531
      ],
      "min": [
        0
      ],
      "type": "SCALAR"
    },
    {
      "bufferView": 2,
      "byteOffset": 6291120,
      "componentType": 5126,
      "count": 65532,
      "max": [
        2.9181180000305176,
        -31.003139495849609,
        5.1610374450683594
      ],
      "min": [
        -4.097135066986084,
        -42.531806945800781,
        -3.5740909576416016
      ],
      "type": "VEC3"
    },
    {
      "bufferView": 2,
      "byteOffset": 7077504,
      "componentType": 5126,
      "count": 65532,
      "max": [
        0.99997949600219727,
        0.99998801946640015,
        0.99999409914016724
      ],
      "min": [
        -0.9999956488609314,
        -0.99986845254898071,
        -0.99999278783798218
      ],
      "type": "VEC3"
    },
    {
      "bufferView": 1,
      "byteOffset": 2097040,
      "componentType": 5126,
      "count": 65532,
      "max": [
        0.9997439980506897,
        0.62707501649856567
      ],
      "min": [
        0.00012199999764561653,
        0.038311999291181564
      ],
      "type": "VEC2"
    },
    {
      "bufferView": 0,
      "byteOffset": 4585176,
      "componentType": 5125,
      "count": 269511,
      "max": [
        65531
      ],
      "min": [
        0
      ],
      "type": "SCALAR"
    },
    {
      "bufferView": 2,
      "byteOffset": 7863888,
      "componentType": 5126,
      "count": 65532,
      "max": [
        3.1077816486358643,
        -31.002517700195312,
        5.8574872016906738
      ],
      "min": [
        -4.3723959922790527,
        -40.102527618408203,
        -2.9635262489318848
      ],
      "type": "VEC3"
    },
    {
      "bufferView": 2,
      "byteOffset": 8650272,
      "componentType": 5126,
      "count": 65532,
      "max": [
        0.99999940395355225,
        0.99999862909317017,
        0.99998599290847778
      ],
      "min": [
        -0.99999767541885376,
        -0.99995338916778564,
        -0.9999992847442627
      ],
      "type": "VEC3"
    },
    {
      "bufferView": 1,
      "byteOffset": 2621296,
      "componentType": 5126,
      "count": 65532,
      "max": [
        0.99975502490997314,
        0.62731897830963135
      ],
      "min": [
        0.00012199999764561653,
        0.00022499999613501132
      ],
      "type": "VEC2"
    },
    {
      "bufferView": 0,
      "byteOffset": 5663220,
      "componentType": 5125,
      "count": 271518,
      "max": [
        65531
      ],
      "min": [
        0
      ],
      "type": "SCALAR"
    },
    {
      "bufferView": 2,
      "byteOffset": 9436656,
      "componentType": 5126,
      "count": 65532,
      "max": [
        3.1045136451721191,
        -33.210494995117188,
        0.41449078917503357
      ],
      "min": [
        -4.3802962303161621,
        -40.106803894042969,
        -3.5330324172973633
      ],
      "type": "VEC3"
    },
    {
      "bufferView": 2,
      "byteOffset": 10223040,
      "componentType": 5126,
      "count": 65532,
      "max": [
        0.99998766183853149,
        0.99982565641403198,
        0.9997517466545105
      ],
      "min": [
        -0.99983829259872437,
        -0.99991977214813232,
        -0.99997866153717041
      ],
      "type": "VEC3"
    },
    {
      "bufferView": 1,
      "byteOffset": 3145552,
      "componentType": 5126,
      "count": 65532,
      "max": [
        0.99979299306869507,
        0.62731897830963135
      ],
      "min": [
        0.00012199999764561653,
        0.0002390000008745119
      ],
      "type": "VEC2"
    },
    {
      "bufferView": 0,
      "byteOffset": 6749292,
      "componentType": 5125,
      "count": 271869,
      "max": [
        65531
      ],
      "min": [
        0
      ],
      "type": "SCALAR"
    },
    {
      "bufferView": 2,
      "byteOffset": 11009424,
      "componentType": 5126,
      "count": 17399,
      "max": [
        3.1066744327545166,
        -32.21551513671875,
        4.3994383811950684
      ],
      "min": [
        -2.23421311378479,
        -37.619125366210938,
        -3.5740909576416016
      ],
      "type": "VEC3"
    },
    {
      "bufferView": 2,
      "byteOffset": 11218212,
      "componentType": 5126,
      "count": 17399,
      "max": [
        0.99993973970413208,
        0.99998801946640015,
        0.97507870197296143
      ],
      "min": [
        -0.99949443340301514,
        -0.98713481426239014,
        -0.99994832277297974
      ],
      "type": "VEC3"
    },
    {
      "bufferView": 1,
      "byteOffset": 3669808,
      "componentType": 5126,
      "count": 17399,
      "max": [
        0.99687099456787109,
        0.62731897830963135
      ],
      "min": [
        0.00027200000477023423,
        0.016310999169945717
      ],
      "type": "VEC2"
    },
    {
      "bufferView": 0,
      "byteOffset": 7836768,
      "componentType": 5125,
      "count": 58569,
      "max": [
        17398
      ],
      "min": [
        0
      ],
      "type": "SCALAR"
    },
    {
      "bufferView": 2,
      "byteOffset": 11427000,
      "componentType": 5126,
      "count": 16674,
      "max": [
        2.7160189151763916,
        -31.002281188964844,
        4.8614997863769531
      ],
      "min": [
        -3.7282986640930176,
        -31.135181427001953,
        -2.9648654460906982
      ],
      "type": "VEC3"
    },
    {
      "bufferView": 2,
      "byteOffset": 11627088,
      "componentType": 5126,
      "count": 16674,
      "max": [
        0.99996840953826904,
        0.99999874830245972,
        0.99993199110031128
      ],
      "min": [
        -0.99999767541885376,
        -0.58039039373397827,
        -0.9999992847442627
      ],
      "type": "VEC3"
    },
    {
      "bufferView": 1,
      "byteOffset": 3809000,
      "componentType": 5126,
      "count": 16674,
      "max": [
        0,
        0
      ],
      "min": [
        0,
        0
      ],
      "type": "VEC2"
    },
    {
      "bufferView": 0,
      "byteOffset": 8071044,
      "componentType": 5125,
      "count": 96027,
      "max": [
        16673
      ],
      "min": [
        0
      ],
      "type": "SCALAR"
    }
  ],
  "asset": {
    "extras": {
      "author": "noe-3d.at (https://sketchfab.com/www.noe-3d.at)",
      "license": "CC0-1.0 (http://creativecommons.org/publicdomain/zero/1.0/)",
      "source": "https://sketchfab.com/3d-models/ludwig-van-beethoven-4b3933ff55b9471aa5a5a742e7b0c74b",
      "title": "Ludwig van Beethoven"
    },
    "generator": "Sketchfab-8.60.0",
    "version": "2.0"
  },
  "bufferViews": [
    {
      "buffer": 0,
      "byteLength": 8455152,
      "byteOffset": 0,
      "name": "floatBufferViews",
      "target": 34963
    },
    {
      "buffer": 0,
      "byteLength": 3942392,
      "byteOffset": 8455152,
      "byteStride": 8,
      "name": "floatBufferViews",
      "target": 34962
    },
    {
      "buffer": 0,
      "byteLength": 11827176,
      "byteOffset": 12397544,
      "byteStride": 12,
      "name": "floatBufferViews",
      "target": 34962
    }
  ],
  "buffers": [
    {
      "byteLength": 24224720,
      "uri": "scene.bin"
    }
  ],
  "images": [
    {
      "uri": "textures/Beethoven_O_Material_u1_v1_baseColor.png"
    }
  ],
  "materials": [
    {
      "doubleSided": true,
      "emissiveFactor": [
        0,
        0,
        0
      ],
      "name": "Beethoven_O_Material_u1_v1",
      "pbrMetallicRoughness": {
        "baseColorFactor": [
          1,
          1,
          1,
          1
        ],
        "baseColorTexture": {
          "index": 0,
          "texCoord": 0
        },
        "metallicFactor": 0.44556250572204592,
        "roughnessFactor": 0.7356874942779541
      }
    }
  ],
  "meshes": [
    {
      "primitives": [
        {
          "attributes": {
            "NORMAL": 1,
            "POSITION": 0,
            "TEXCOORD_0": 2
          },
          "indices": 3,
          "material": 0,
          "mode": 4
        }
      ]
    },
    {
      "primitives": [
        {
          "attributes": {
            "NORMAL": 5,
            "POSITION": 4,
            "TEXCOORD_0": 6
          },
          "indices": 7,
          "material": 0,
          "mode": 4
        }
      ]
    },
    {
      "primitives": [
        {
          "attributes": {
            "NORMAL": 9,
            "POSITION": 8,
            "TEXCOORD_0": 10
          },
          "indices": 11,
          "material": 0,
          "mode": 4
        }
      ]
    },
    {
      "primitives": [
        {
          "attributes": {
            "NORMAL": 13,
            "POSITION": 12,
            "TEXCOORD_0": 14
          },
          "indices": 15,
          "material": 0,
          "mode": 4
        }
      ]
    },
    {
      "primitives": [
        {
          "attributes": {
            "NORMAL": 17,
            "POSITION": 16,
            "TEXCOORD_0": 18
          },
          "indices": 19,
          "material": 0,
          "mode": 4
        }
      ]
    },
    {
      "primitives": [
        {
          "attributes": {
            "NORMAL": 21,
            "POSITION": 20,
            "TEXCOORD_0": 22
          },
          "indices": 23,
          "material": 0,
          "mode": 4
        }
      ]
    },
    {
      "primitives": [
        {
          "attributes": {
            "NORMAL": 25,
            "POSITION": 24,
            "TEXCOORD_0": 26
          },
          "indices": 27,
          "material": 0,
          "mode": 4
        }
      ]
    },
    {
      "primitives": [
        {
          "attributes": {
            "NORMAL": 29,
            "POSITION": 28,
            "TEXCOORD_0": 30
          },
          "indices": 31,
          "material": 0,
          "mode": 4
        }
      ]
    },
    {
      "primitives": [
        {
          "attributes": {
            "NORMAL": 33,
            "POSITION": 32,
            "TEXCOORD_0": 34
          },
          "indices": 35,
          "material": 0,
          "mode": 4
        }
      ]
    }
  ],
  "nodes": [
    {
      "children": [
        1
      ],
      "name": "RootNode (gltf orientation matrix)",
      "rotation": [
        -0.70710678118654746,
        -0,
        -0,
        0.70710678118654757
      ]
    },
    {
      "children": [
        2
      ],
      "matrix": [
        -0.096324878552789261,
        0.00064868200950855825,
        0.0018965569215486505,
        0,
        -0.001895032067713992,
        0.00023208407265063943,
        -0.096326813826856927,
        0,
        -0.00065312318892325402,
        -0.096343266527758598,
        -0.00021927486076763619,
        0,
        -2.024242639541626,
        -37.446319580078125,
        -37.521049499511719,
        1
      ],
      "name": "RootNode (model correction matrix)"
    },
    {
      "children": [
        3,
        4,
        5,
        6,
        7,
        8,
        9,
        10,
        11
      ],
      "name": "Beethoven_C.obj.cleaner.materialmerger.gles"
    },
    {
      "mesh": 0,
      "name": ""
    },
    {
      "mesh": 1,
      "name": ""
    },
    {
      "mesh": 2,
      "name": ""
    },
    {
      "mesh": 3,
      "name": ""
    },
    {
      "mesh": 4,
      "name": ""
    },
    {
      "mesh": 5,
      "name": ""
    },
    {
      "mesh": 6,
      "name": ""
    },
    {
      "mesh": 7,
      "name": ""
    },
    {
      "mesh": 8,
      "name": ""
    }
  ],
  "samplers": [
    {
      "magFilter": 9729,
      "minFilter": 9987,
      "wrapS": 10497,
      "wrapT": 10497
    }
  ],
  "scene": 0,
  "scenes": [
    {
      "name": "OSG_Scene",
      "nodes": [
        0
      ]
    }
  ],
  "textures": [
    {
      "sampler": 0,
      "source": 0
    }
  ]
}

